<svg xmlns="http://www.w3.org/2000/svg" version="1.1" xmlns:xlink="http://www.w3.org/1999/xlink" xmlns:svgjs="http://svgjs.dev/svgjs" width="2000" height="651" viewBox="0 0 2000 651"><g transform="matrix(1,0,0,1,-1.2121212121212466,-0.9297632422470201)"><svg viewBox="0 0 396 129" data-background-color="#1f0f53" preserveAspectRatio="xMidYMid meet" height="651" width="2000" xmlns="http://www.w3.org/2000/svg" xmlns:xlink="http://www.w3.org/1999/xlink"><g id="tight-bounds" transform="matrix(1,0,0,1,0.2400000000000091,0.18423879915494012)"><svg viewBox="0 0 395.52 128.63152240169015" height="128.63152240169015" width="395.52"><g><svg viewBox="0 0 611.3091690970257 198.81075313274337" height="128.63152240169015" width="395.52"><g transform="matrix(1,0,0,1,215.78916909702568,63.44105798230089)"><svg viewBox="0 0 395.52 71.92863716814159" height="71.92863716814159" width="395.52"><g id="textblocktransform"><svg viewBox="0 0 395.52 71.92863716814159" height="71.92863716814159" width="395.52" id="textblock"><g><svg viewBox="0 0 395.52 71.92863716814159" height="71.92863716814159" width="395.52"><g transform="matrix(1,0,0,1,0,0)"><svg width="395.52" viewBox="1.6 -40.75 225.99 41.1" height="71.92863716814159" data-palette-color="#ffffff"><g class="wordmark-text-0" data-fill-palette-color="primary" id="text-0"><path d="M19.7 0.35Q14.75 0.35 10.6-1.98 6.45-4.3 4.03-8.43 1.6-12.55 1.6-17.75L1.6-17.75Q1.6-22.95 4.03-27.08 6.45-31.2 10.6-33.5 14.75-35.8 19.7-35.8L19.7-35.8Q24.7-35.8 28.83-33.5 32.95-31.2 35.35-27.08 37.75-22.95 37.75-17.75L37.75-17.75Q37.75-12.55 35.35-8.43 32.95-4.3 28.8-1.98 24.65 0.35 19.7 0.35L19.7 0.35ZM19.7-8.75Q23.45-8.75 25.63-11.2 27.8-13.65 27.8-17.75L27.8-17.75Q27.8-21.95 25.63-24.38 23.45-26.8 19.7-26.8L19.7-26.8Q15.9-26.8 13.75-24.38 11.6-21.95 11.6-17.75L11.6-17.75Q11.6-13.6 13.75-11.18 15.9-8.75 19.7-8.75L19.7-8.75ZM60.5-28.3Q65.35-28.3 68.2-25.08 71.05-21.85 71.05-16.35L71.05-16.35 71.05 0 61.25 0 61.25-15.05Q61.25-17.45 60-18.82 58.75-20.2 56.65-20.2L56.65-20.2Q54.45-20.2 53.2-18.82 51.95-17.45 51.95-15.05L51.95-15.05 51.95 0 42.15 0 42.15-28.05 51.95-28.05 51.95-24.05Q53.25-25.95 55.45-27.13 57.65-28.3 60.5-28.3L60.5-28.3ZM105.8-35.25L117.6-35.25 117.6 0 107.8 0 107.8-19.45 101.15 0 92.95 0 86.25-19.6 86.25 0 76.45 0 76.45-35.25 88.3-35.25 97.15-12.35 105.8-35.25ZM142.04-28.05L151.89-28.05 151.89 0 142.04 0 142.04-4Q140.79-2.1 138.59-0.93 136.39 0.25 133.54 0.25L133.54 0.25Q128.64 0.25 125.82-2.98 122.99-6.2 122.99-11.75L122.99-11.75 122.99-28.05 132.74-28.05 132.74-13Q132.74-10.6 134.02-9.22 135.29-7.85 137.39-7.85L137.39-7.85Q139.54-7.85 140.79-9.22 142.04-10.6 142.04-13L142.04-13 142.04-28.05ZM169.44 0.35Q165.64 0.35 162.67-0.93 159.69-2.2 157.97-4.42 156.24-6.65 156.04-9.45L156.04-9.45 165.54-9.45Q165.74-8.1 166.79-7.35 167.84-6.6 169.39-6.6L169.39-6.6Q170.59-6.6 171.29-7.1 171.99-7.6 171.99-8.4L171.99-8.4Q171.99-9.45 170.84-9.95 169.69-10.45 167.04-11.05L167.04-11.05Q164.04-11.65 162.04-12.4 160.04-13.15 158.57-14.85 157.09-16.55 157.09-19.45L157.09-19.45Q157.09-21.95 158.44-23.98 159.79-26 162.42-27.2 165.04-28.4 168.74-28.4L168.74-28.4Q174.24-28.4 177.39-25.7 180.54-23 181.04-18.6L181.04-18.6 172.19-18.6Q171.94-19.95 171.02-20.68 170.09-21.4 168.54-21.4L168.54-21.4Q167.34-21.4 166.72-20.95 166.09-20.5 166.09-19.7L166.09-19.7Q166.09-18.7 167.24-18.18 168.39-17.65 170.94-17.1L170.94-17.1Q173.99-16.45 176.02-15.65 178.04-14.85 179.57-13.08 181.09-11.3 181.09-8.25L181.09-8.25Q181.09-5.8 179.67-3.85 178.24-1.9 175.62-0.78 172.99 0.35 169.44 0.35L169.44 0.35ZM190.84-30.65Q188.24-30.65 186.66-32.08 185.09-33.5 185.09-35.65L185.09-35.65Q185.09-37.85 186.66-39.3 188.24-40.75 190.84-40.75L190.84-40.75Q193.39-40.75 194.96-39.3 196.54-37.85 196.54-35.65L196.54-35.65Q196.54-33.5 194.96-32.08 193.39-30.65 190.84-30.65L190.84-30.65ZM185.89-28.05L195.69-28.05 195.69 0 185.89 0 185.89-28.05ZM199.69-14.05Q199.69-18.4 201.49-21.65 203.29-24.9 206.51-26.65 209.74-28.4 213.89-28.4L213.89-28.4Q219.24-28.4 222.89-25.48 226.54-22.55 227.59-17.3L227.59-17.3 217.19-17.3Q216.29-20.05 213.69-20.05L213.69-20.05Q211.84-20.05 210.76-18.53 209.69-17 209.69-14.05L209.69-14.05Q209.69-11.1 210.76-9.55 211.84-8 213.69-8L213.69-8Q216.34-8 217.19-10.75L217.19-10.75 227.59-10.75Q226.54-5.55 222.89-2.6 219.24 0.35 213.89 0.35L213.89 0.35Q209.74 0.35 206.51-1.4 203.29-3.15 201.49-6.4 199.69-9.65 199.69-14.05L199.69-14.05Z" fill="#ffffff" data-fill-palette-color="primary"></path></g></svg></g></svg></g></svg></g></svg></g><g><svg viewBox="0 0 198.80854414891948 198.81075313274337" height="198.81075313274337" width="198.80854414891948"><g><svg xmlns="http://www.w3.org/2000/svg" xmlns:xlink="http://www.w3.org/1999/xlink" version="1.1" x="0" y="0" viewBox="5.0020000000000024 5 90 90.001" style="enable-background:new 0 0 100 100;" xml:space="preserve" height="198.81075313274337" width="198.80854414891948" class="icon-icon-0" data-fill-palette-color="accent" id="icon-0"></svg></g></svg></g></svg></g><defs></defs><mask id="63fb844c-e8c4-42cc-8b1e-558e5500b418"><g id="SvgjsG1164"><svg viewBox="0 0 395.52 128.63152240169015" height="128.63152240169015" width="395.52"><g><svg viewBox="0 0 611.3091690970257 198.81075313274337" height="128.63152240169015" width="395.52"><g transform="matrix(1,0,0,1,215.78916909702568,63.44105798230089)"><svg viewBox="0 0 395.52 71.92863716814159" height="71.92863716814159" width="395.52"><g id="SvgjsG1163"><svg viewBox="0 0 395.52 71.92863716814159" height="71.92863716814159" width="395.52" id="SvgjsSvg1162"><g><svg viewBox="0 0 395.52 71.92863716814159" height="71.92863716814159" width="395.52"><g transform="matrix(1,0,0,1,0,0)"><svg width="395.52" viewBox="1.6 -40.75 225.99 41.1" height="71.92863716814159" data-palette-color="#ffffff"><g class="wordmark-text-0" data-fill-palette-color="primary" id="SvgjsG1161"><path d="M19.7 0.35Q14.75 0.35 10.6-1.98 6.45-4.3 4.03-8.43 1.6-12.55 1.6-17.75L1.6-17.75Q1.6-22.95 4.03-27.08 6.45-31.2 10.6-33.5 14.75-35.8 19.7-35.8L19.7-35.8Q24.7-35.8 28.83-33.5 32.95-31.2 35.35-27.08 37.75-22.95 37.75-17.75L37.75-17.75Q37.75-12.55 35.35-8.43 32.95-4.3 28.8-1.98 24.65 0.35 19.7 0.35L19.7 0.35ZM19.7-8.75Q23.45-8.75 25.63-11.2 27.8-13.65 27.8-17.75L27.8-17.75Q27.8-21.95 25.63-24.38 23.45-26.8 19.7-26.8L19.7-26.8Q15.9-26.8 13.75-24.38 11.6-21.95 11.6-17.75L11.6-17.75Q11.6-13.6 13.75-11.18 15.9-8.75 19.7-8.75L19.7-8.75ZM60.5-28.3Q65.35-28.3 68.2-25.08 71.05-21.85 71.05-16.35L71.05-16.35 71.05 0 61.25 0 61.25-15.05Q61.25-17.45 60-18.82 58.75-20.2 56.65-20.2L56.65-20.2Q54.45-20.2 53.2-18.82 51.95-17.45 51.95-15.05L51.95-15.05 51.95 0 42.15 0 42.15-28.05 51.95-28.05 51.95-24.05Q53.25-25.95 55.45-27.13 57.65-28.3 60.5-28.3L60.5-28.3ZM105.8-35.25L117.6-35.25 117.6 0 107.8 0 107.8-19.45 101.15 0 92.95 0 86.25-19.6 86.25 0 76.45 0 76.45-35.25 88.3-35.25 97.15-12.35 105.8-35.25ZM142.04-28.05L151.89-28.05 151.89 0 142.04 0 142.04-4Q140.79-2.1 138.59-0.93 136.39 0.25 133.54 0.25L133.54 0.25Q128.64 0.25 125.82-2.98 122.99-6.2 122.99-11.75L122.99-11.75 122.99-28.05 132.74-28.05 132.74-13Q132.74-10.6 134.02-9.22 135.29-7.85 137.39-7.85L137.39-7.85Q139.54-7.85 140.79-9.22 142.04-10.6 142.04-13L142.04-13 142.04-28.05ZM169.44 0.35Q165.64 0.35 162.67-0.93 159.69-2.2 157.97-4.42 156.24-6.65 156.04-9.45L156.04-9.45 165.54-9.45Q165.74-8.1 166.79-7.35 167.84-6.6 169.39-6.6L169.39-6.6Q170.59-6.6 171.29-7.1 171.99-7.6 171.99-8.4L171.99-8.4Q171.99-9.45 170.84-9.95 169.69-10.45 167.04-11.05L167.04-11.05Q164.04-11.65 162.04-12.4 160.04-13.15 158.57-14.85 157.09-16.55 157.09-19.45L157.09-19.45Q157.09-21.95 158.44-23.98 159.79-26 162.42-27.2 165.04-28.4 168.74-28.4L168.74-28.4Q174.24-28.4 177.39-25.7 180.54-23 181.04-18.6L181.04-18.6 172.19-18.6Q171.94-19.95 171.02-20.68 170.09-21.4 168.54-21.4L168.54-21.4Q167.34-21.4 166.72-20.95 166.09-20.5 166.09-19.7L166.09-19.7Q166.09-18.7 167.24-18.18 168.39-17.65 170.94-17.1L170.94-17.1Q173.99-16.45 176.02-15.65 178.04-14.85 179.57-13.08 181.09-11.3 181.09-8.25L181.09-8.25Q181.09-5.8 179.67-3.85 178.24-1.9 175.62-0.78 172.99 0.35 169.44 0.35L169.44 0.35ZM190.84-30.65Q188.24-30.65 186.66-32.08 185.09-33.5 185.09-35.65L185.09-35.65Q185.09-37.85 186.66-39.3 188.24-40.75 190.84-40.75L190.84-40.75Q193.39-40.75 194.96-39.3 196.54-37.85 196.54-35.65L196.54-35.65Q196.54-33.5 194.96-32.08 193.39-30.65 190.84-30.65L190.84-30.65ZM185.89-28.05L195.69-28.05 195.69 0 185.89 0 185.89-28.05ZM199.69-14.05Q199.69-18.4 201.49-21.65 203.29-24.9 206.51-26.65 209.74-28.4 213.89-28.4L213.89-28.4Q219.24-28.4 222.89-25.48 226.54-22.55 227.59-17.3L227.59-17.3 217.19-17.3Q216.29-20.05 213.69-20.05L213.69-20.05Q211.84-20.05 210.76-18.53 209.69-17 209.69-14.05L209.69-14.05Q209.69-11.1 210.76-9.55 211.84-8 213.69-8L213.69-8Q216.34-8 217.19-10.75L217.19-10.75 227.59-10.75Q226.54-5.55 222.89-2.6 219.24 0.35 213.89 0.35L213.89 0.35Q209.74 0.35 206.51-1.4 203.29-3.15 201.49-6.4 199.69-9.65 199.69-14.05L199.69-14.05Z" fill="black"></path></g></svg></g></svg></g></svg></g></svg></g><g><svg viewBox="0 0 198.80854414891948 198.81075313274337" height="198.81075313274337" width="198.80854414891948"><g><svg xmlns="http://www.w3.org/2000/svg" xmlns:xlink="http://www.w3.org/1999/xlink" version="1.1" x="0" y="0" viewBox="5.0020000000000024 5 90 90.001" style="enable-background:new 0 0 100 100;" xml:space="preserve" height="198.81075313274337" width="198.80854414891948" class="icon-icon-0" data-fill-palette-color="accent" id="SvgjsSvg1160"><path d="M50.002 5c-24.854 0-45 20.149-45 44.999 0 24.854 20.146 45.002 45 45.002s45-20.148 45-45.002C95.002 25.148 74.856 5 50.002 5zM50.002 80.738c-16.978 0-30.739-13.762-30.739-30.736 0-16.98 13.762-30.742 30.739-30.742s30.739 13.762 30.739 30.742C80.741 66.977 66.979 80.738 50.002 80.738z" fill="white"></path></svg></g></svg></g></svg></g><defs><mask></mask></defs></svg><rect width="395.52" height="128.63152240169015" fill="black" stroke="none" visibility="hidden"></rect></g></mask><linearGradient x1="0" x2="1" y1="0.548" y2="0.55" id="8950dc26-fea1-47ac-9102-b782a3cd2440"><stop stop-color="#ff6cab" offset="0"></stop><stop stop-color="#7366ff" offset="1"></stop></linearGradient><rect width="395.52" height="128.63152240169015" fill="url(#8950dc26-fea1-47ac-9102-b782a3cd2440)" mask="url(#63fb844c-e8c4-42cc-8b1e-558e5500b418)" data-fill-palette-color="accent"></rect></svg><rect width="395.52" height="128.63152240169015" fill="none" stroke="none" visibility="hidden"></rect></g></svg></g></svg>